<?xml version="1.0" encoding="UTF-8" standalone="no"?>
<!DOCTYPE svg PUBLIC "-//W3C//DTD SVG 20010904//EN"
  "http://www.w3.org/TR/2001/REC-SVG-20010904/DTD/svg10.dtd">

<svg xmlns="http://www.w3.org/2000/svg"
     width="3.16667in" height="0.4in"
     viewBox="0 0 950 120">
  <style>
    @media (prefers-color-scheme: dark) {
    path {
    fill: white;
    stroke: black;
    }
    }
  </style>
  <defs>
    <filter id="shadow" x="0" y="0" width="200%" height="200%">
      <feOffset result="offOut" in="SourceGraphic" dx="0" dy="0"/>
      <feGaussianBlur result="blurOut" in="offOut" stdDeviation="3"/>
      <feBlend in="SourceGraphic" in2="blurOut"/>
    </filter>
  </defs>
  <path fill="black" stroke="white" stroke-width="2" filter="url(#shadow)"
        d="M 54.03,9.00
           C 54.03,9.00 54.03,55.00 54.03,55.00
             54.03,55.00 67.36,55.00 67.36,55.00
             67.36,55.00 67.36,37.48 67.36,37.48
             67.36,37.48 73.56,37.48 73.56,37.48
             73.56,37.48 73.56,55.00 73.56,55.00
             73.56,55.00 86.83,55.00 86.83,55.00
             86.83,55.00 86.83,9.00 86.83,9.00
             86.83,9.00 73.56,9.00 73.56,9.00
             73.56,9.00 73.56,26.00 73.56,26.00
             73.56,26.00 67.36,26.00 67.36,26.00
             67.36,26.00 67.36,9.00 67.36,9.00
             67.36,9.00 54.03,9.00 54.03,9.00 Z
           M 108.78,8.00
           C 99.17,8.00 92.41,13.95 92.41,26.14
             92.41,26.14 92.41,37.88 92.41,37.88
             92.41,49.88 98.73,56.00 108.78,56.00
             118.39,56.00 125.14,50.06 125.14,37.88
             125.14,37.88 125.14,26.14 125.14,26.14
             125.14,14.14 118.83,8.00 108.78,8.00 Z
           M 108.78,19.55
           C 110.89,19.55 111.81,21.39 111.81,24.78
             111.81,24.78 111.81,39.23 111.81,39.23
             111.81,42.62 111.02,44.47 108.78,44.47
             106.61,44.47 105.73,42.62 105.73,39.23
             105.73,39.23 105.73,24.78 105.73,24.78
             105.73,21.39 106.55,19.55 108.78,19.55 Z
           M 131.03,9.00
           C 131.03,9.00 131.03,55.00 131.03,55.00
             131.03,55.00 147.09,55.00 147.09,55.00
             157.44,55.00 163.02,49.12 163.02,42.09
             163.02,42.09 163.02,40.03 163.02,40.03
             163.02,36.19 161.34,32.83 158.19,31.03
             160.67,29.23 162.03,26.33 162.03,22.97
             162.03,22.97 162.03,21.62 162.03,21.62
             162.03,14.41 157.38,9.00 147.33,9.00
             147.33,9.00 131.03,9.00 131.03,9.00 Z
           M 143.98,36.80
           C 143.98,36.80 146.72,36.80 146.72,36.80
             149.31,36.80 150.44,37.92 150.44,40.03
             150.44,40.03 150.44,40.86 150.44,40.86
             150.44,42.92 149.31,44.09 146.72,44.09
             146.72,44.09 143.98,44.09 143.98,44.09
             143.98,44.09 143.98,36.80 143.98,36.80 Z
           M 143.98,19.98
           C 143.98,19.98 146.22,19.98 146.22,19.98
             148.52,19.98 149.69,21.02 149.69,23.03
             149.69,23.03 149.69,23.95 149.69,23.95
             149.69,25.78 148.52,27.00 146.22,27.00
             146.22,27.00 143.98,27.00 143.98,27.00
             143.98,27.00 143.98,19.98 143.98,19.98 Z
           M 168.03,9.00
           C 168.03,9.00 168.03,55.00 168.03,55.00
             168.03,55.00 184.09,55.00 184.09,55.00
             194.44,55.00 200.02,49.12 200.02,42.09
             200.02,42.09 200.02,40.03 200.02,40.03
             200.02,36.19 198.34,32.83 195.19,31.03
             197.67,29.23 199.03,26.33 199.03,22.97
             199.03,22.97 199.03,21.62 199.03,21.62
             199.03,14.41 194.38,9.00 184.33,9.00
             184.33,9.00 168.03,9.00 168.03,9.00 Z
           M 180.98,36.80
           C 180.98,36.80 183.72,36.80 183.72,36.80
             186.31,36.80 187.44,37.92 187.44,40.03
             187.44,40.03 187.44,40.86 187.44,40.86
             187.44,42.92 186.31,44.09 183.72,44.09
             183.72,44.09 180.98,44.09 180.98,44.09
             180.98,44.09 180.98,36.80 180.98,36.80 Z
           M 180.98,19.98
           C 180.98,19.98 183.22,19.98 183.22,19.98
             185.52,19.98 186.69,21.02 186.69,23.03
             186.69,23.03 186.69,23.95 186.69,23.95
             186.69,25.78 185.52,27.00 183.22,27.00
             183.22,27.00 180.98,27.00 180.98,27.00
             180.98,27.00 180.98,19.98 180.98,19.98 Z
           M 199.86,9.00
           C 199.86,9.00 210.77,42.44 210.77,42.44
             210.77,42.44 210.77,55.00 210.77,55.00
             210.77,55.00 224.09,55.00 224.09,55.00
             224.09,55.00 224.09,42.44 224.09,42.44
             224.09,42.44 235.02,9.00 235.02,9.00
             235.02,9.00 220.94,9.00 220.94,9.00
             220.94,9.00 217.84,28.94 217.84,28.94
             217.84,28.94 217.47,28.94 217.47,28.94
             217.47,28.94 214.38,9.00 214.38,9.00
             214.38,9.00 199.86,9.00 199.86,9.00 Z
           M 239.03,9.00
           C 239.03,9.00 239.03,55.00 239.03,55.00
             239.03,55.00 265.31,55.00 265.31,55.00
             265.31,55.00 265.31,43.47 265.31,43.47
             265.31,43.47 252.36,43.47 252.36,43.47
             252.36,43.47 252.36,9.00 252.36,9.00
             252.36,9.00 239.03,9.00 239.03,9.00 Z
           M 284.78,8.00
           C 275.17,8.00 268.41,13.95 268.41,26.14
             268.41,26.14 268.41,37.88 268.41,37.88
             268.41,49.88 274.73,56.00 284.78,56.00
             294.39,56.00 301.14,50.06 301.14,37.88
             301.14,37.88 301.14,26.14 301.14,26.14
             301.14,14.14 294.83,8.00 284.78,8.00 Z
           M 284.78,19.55
           C 286.89,19.55 287.81,21.39 287.81,24.78
             287.81,24.78 287.81,39.23 287.81,39.23
             287.81,42.62 287.02,44.47 284.78,44.47
             282.61,44.47 281.73,42.62 281.73,39.23
             281.73,39.23 281.73,24.78 281.73,24.78
             281.73,21.39 282.55,19.55 284.78,19.55 Z
           M 336.55,23.14
           C 336.55,23.14 336.55,21.11 336.55,21.11
             336.55,12.84 331.52,8.00 321.72,8.00
             312.23,8.00 306.84,13.83 306.84,22.09
             306.84,22.09 306.84,23.62 306.84,23.62
             306.84,31.22 311.50,36.80 321.47,37.55
             323.89,37.72 325.02,39.03 325.02,41.12
             325.02,41.12 325.02,42.75 325.02,42.75
             325.02,44.42 324.08,45.53 322.28,45.53
             320.61,45.53 319.61,44.42 319.61,42.12
             319.61,42.12 319.61,40.02 319.61,40.02
             319.61,40.02 306.41,40.02 306.41,40.02
             306.41,40.02 306.41,42.06 306.41,42.06
             306.41,50.48 311.62,56.00 322.28,56.00
             332.83,56.00 337.66,49.56 337.66,42.12
             337.66,42.12 337.66,40.58 337.66,40.58
             337.66,32.14 333.06,26.81 322.78,26.00
             320.42,25.83 319.38,24.78 319.38,22.58
             319.38,22.58 319.38,21.00 319.38,21.00
             319.38,19.41 320.17,18.48 321.72,18.48
             323.39,18.48 324.14,19.48 324.14,21.09
             324.14,21.09 324.14,23.20 324.14,23.20
             324.14,23.20 336.55,23.14 336.55,23.14 Z
           M 385.55,23.14
           C 385.55,23.14 385.55,21.11 385.55,21.11
             385.55,12.84 380.52,8.00 370.72,8.00
             361.23,8.00 355.84,13.83 355.84,22.09
             355.84,22.09 355.84,23.62 355.84,23.62
             355.84,31.22 360.50,36.80 370.47,37.55
             372.89,37.72 374.02,39.03 374.02,41.12
             374.02,41.12 374.02,42.75 374.02,42.75
             374.02,44.42 373.08,45.53 371.28,45.53
             369.61,45.53 368.61,44.42 368.61,42.12
             368.61,42.12 368.61,40.02 368.61,40.02
             368.61,40.02 355.41,40.02 355.41,40.02
             355.41,40.02 355.41,42.06 355.41,42.06
             355.41,50.48 360.62,56.00 371.28,56.00
             381.83,56.00 386.66,49.56 386.66,42.12
             386.66,42.12 386.66,40.58 386.66,40.58
             386.66,32.14 382.06,26.81 371.78,26.00
             369.42,25.83 368.38,24.78 368.38,22.58
             368.38,22.58 368.38,21.00 368.38,21.00
             368.38,19.41 369.17,18.48 370.72,18.48
             372.39,18.48 373.14,19.48 373.14,21.09
             373.14,21.09 373.14,23.20 373.14,23.20
             373.14,23.20 385.55,23.14 385.55,23.14 Z
           M 388.55,9.00
           C 388.55,9.00 388.55,20.36 388.55,20.36
             388.55,20.36 397.23,20.36 397.23,20.36
             397.23,20.36 397.23,55.00 397.23,55.00
             397.23,55.00 410.56,55.00 410.56,55.00
             410.56,55.00 410.56,20.36 410.56,20.36
             410.56,20.36 419.23,20.36 419.23,20.36
             419.23,20.36 419.23,9.00 419.23,9.00
             419.23,9.00 388.55,9.00 388.55,9.00 Z
           M 428.77,8.00
           C 428.77,8.00 417.86,55.00 417.86,55.00
             417.86,55.00 431.19,55.00 431.19,55.00
             431.19,55.00 432.19,48.00 432.19,48.00
             432.19,48.00 439.81,48.00 439.81,48.00
             439.81,48.00 440.80,55.00 440.80,55.00
             440.80,55.00 454.56,55.00 454.56,55.00
             454.56,55.00 443.66,8.00 443.66,8.00
             443.66,8.00 428.77,8.00 428.77,8.00 Z
           M 435.84,21.45
           C 435.84,21.45 436.22,21.45 436.22,21.45
             436.22,21.45 438.38,37.59 438.38,37.59
             438.38,37.59 433.61,37.59 433.61,37.59
             433.61,37.59 435.84,21.45 435.84,21.45 Z
           M 458.03,9.00
           C 458.03,9.00 458.03,55.00 458.03,55.00
             458.03,55.00 472.91,55.00 472.91,55.00
             484.12,55.00 489.77,48.62 489.77,38.69
             489.77,38.69 489.77,25.33 489.77,25.33
             489.77,15.39 484.12,9.00 472.91,9.00
             472.91,9.00 458.03,9.00 458.03,9.00 Z
           M 471.36,20.30
           C 471.36,20.30 472.84,20.30 472.84,20.30
             475.52,20.30 476.75,21.75 476.75,25.62
             476.75,25.62 476.75,38.38 476.75,38.38
             476.75,42.27 475.45,43.72 472.84,43.72
             472.84,43.72 471.36,43.72 471.36,43.72
             471.36,43.72 471.36,20.30 471.36,20.30 Z
           M 492.55,9.00
           C 492.55,9.00 492.55,20.36 492.55,20.36
             492.55,20.36 501.23,20.36 501.23,20.36
             501.23,20.36 501.23,55.00 501.23,55.00
             501.23,55.00 514.56,55.00 514.56,55.00
             514.56,55.00 514.56,20.36 514.56,20.36
             514.56,20.36 523.23,20.36 523.23,20.36
             523.23,20.36 523.23,9.00 523.23,9.00
             523.23,9.00 492.55,9.00 492.55,9.00 Z
           M 542.59,29.11
           C 542.59,29.11 542.59,37.75 542.59,37.75
             542.59,37.75 545.81,37.75 545.81,37.75
             545.81,37.75 545.81,39.84 545.81,39.84
             545.81,43.00 544.89,44.47 542.78,44.47
             540.80,44.47 539.73,43.00 539.73,39.84
             539.73,39.84 539.73,24.17 539.73,24.17
             539.73,21.08 540.67,19.55 542.78,19.55
             544.95,19.55 545.81,21.08 545.81,24.17
             545.81,24.17 545.81,25.95 545.81,25.95
             545.81,25.95 558.41,25.95 558.41,25.95
             558.41,25.95 558.41,25.09 558.41,25.09
             558.41,14.33 552.64,8.00 542.91,8.00
             532.61,8.00 526.41,14.95 526.41,26.33
             526.41,26.33 526.41,37.69 526.41,37.69
             526.41,49.81 531.80,56.00 539.86,56.00
             543.77,55.81 546.94,54.20 548.61,50.70
             548.61,50.70 548.61,55.00 548.61,55.00
             548.61,55.00 558.41,55.00 558.41,55.00
             558.41,55.00 558.41,29.06 558.41,29.06
             558.41,29.06 542.59,29.11 542.59,29.11 Z
           M 564.03,9.00
           C 564.03,9.00 564.03,55.00 564.03,55.00
             564.03,55.00 590.75,55.00 590.75,55.00
             590.75,55.00 590.75,44.03 590.75,44.03
             590.75,44.03 577.36,44.03 577.36,44.03
             577.36,44.03 577.36,37.00 577.36,37.00
             577.36,37.00 588.64,37.00 588.64,37.00
             588.64,37.00 588.64,26.97 588.64,26.97
             588.64,26.97 577.36,26.97 577.36,26.97
             577.36,26.97 577.36,19.98 577.36,19.98
             577.36,19.98 590.12,19.98 590.12,19.98
             590.12,19.98 590.12,9.00 590.12,9.00
             590.12,9.00 564.03,9.00 564.03,9.00 Z
           M 623.55,23.14
           C 623.55,23.14 623.55,21.11 623.55,21.11
             623.55,12.84 618.52,8.00 608.72,8.00
             599.23,8.00 593.84,13.83 593.84,22.09
             593.84,22.09 593.84,23.62 593.84,23.62
             593.84,31.22 598.50,36.80 608.47,37.55
             610.89,37.72 612.02,39.03 612.02,41.12
             612.02,41.12 612.02,42.75 612.02,42.75
             612.02,44.42 611.08,45.53 609.28,45.53
             607.61,45.53 606.61,44.42 606.61,42.12
             606.61,42.12 606.61,40.02 606.61,40.02
             606.61,40.02 593.41,40.02 593.41,40.02
             593.41,40.02 593.41,42.06 593.41,42.06
             593.41,50.48 598.62,56.00 609.28,56.00
             619.83,56.00 624.66,49.56 624.66,42.12
             624.66,42.12 624.66,40.58 624.66,40.58
             624.66,32.14 620.06,26.81 609.78,26.00
             607.42,25.83 606.38,24.78 606.38,22.58
             606.38,22.58 606.38,21.00 606.38,21.00
             606.38,19.41 607.17,18.48 608.72,18.48
             610.39,18.48 611.14,19.48 611.14,21.09
             611.14,21.09 611.14,23.20 611.14,23.20
             611.14,23.20 623.55,23.14 623.55,23.14 Z
           M 661.41,27.81
           C 661.41,27.81 661.41,25.72 661.41,25.72
             661.41,14.02 655.88,8.00 645.84,8.00
             636.11,8.00 629.41,14.08 629.41,26.95
             629.41,26.95 629.41,37.06 629.41,37.06
             629.41,49.81 635.55,56.00 645.72,56.00
             655.77,56.00 661.53,49.88 661.53,38.30
             661.53,38.30 661.53,35.59 661.53,35.59
             661.53,35.59 648.81,35.59 648.81,35.59
             648.81,35.59 648.81,39.23 648.81,39.23
             648.81,42.62 648.14,44.47 645.78,44.47
             643.55,44.47 642.73,42.62 642.73,39.23
             642.73,39.23 642.73,24.78 642.73,24.78
             642.73,21.39 643.42,19.55 645.78,19.55
             648.02,19.55 648.81,21.39 648.81,24.78
             648.81,24.78 648.81,27.81 648.81,27.81
             648.81,27.81 661.41,27.81 661.41,27.81 Z
           M 667.03,9.00
           C 667.03,9.00 667.03,55.00 667.03,55.00
             667.03,55.00 680.36,55.00 680.36,55.00
             680.36,55.00 680.36,37.48 680.36,37.48
             680.36,37.48 686.56,37.48 686.56,37.48
             686.56,37.48 686.56,55.00 686.56,55.00
             686.56,55.00 699.83,55.00 699.83,55.00
             699.83,55.00 699.83,9.00 699.83,9.00
             699.83,9.00 686.56,9.00 686.56,9.00
             686.56,9.00 686.56,26.00 686.56,26.00
             686.56,26.00 680.36,26.00 680.36,26.00
             680.36,26.00 680.36,9.00 680.36,9.00
             680.36,9.00 667.03,9.00 667.03,9.00 Z
           M 706.03,9.00
           C 706.03,9.00 706.03,55.00 706.03,55.00
             706.03,55.00 719.36,55.00 719.36,55.00
             719.36,55.00 719.36,9.00 719.36,9.00
             719.36,9.00 706.03,9.00 706.03,9.00 Z
           M 756.41,27.81
           C 756.41,27.81 756.41,25.72 756.41,25.72
             756.41,14.02 750.88,8.00 740.84,8.00
             731.11,8.00 724.41,14.08 724.41,26.95
             724.41,26.95 724.41,37.06 724.41,37.06
             724.41,49.81 730.55,56.00 740.72,56.00
             750.77,56.00 756.53,49.88 756.53,38.30
             756.53,38.30 756.53,35.59 756.53,35.59
             756.53,35.59 743.81,35.59 743.81,35.59
             743.81,35.59 743.81,39.23 743.81,39.23
             743.81,42.62 743.14,44.47 740.78,44.47
             738.55,44.47 737.73,42.62 737.73,39.23
             737.73,39.23 737.73,24.78 737.73,24.78
             737.73,21.39 738.42,19.55 740.78,19.55
             743.02,19.55 743.81,21.39 743.81,24.78
             743.81,24.78 743.81,27.81 743.81,27.81
             743.81,27.81 756.41,27.81 756.41,27.81 Z
           M 762.03,9.00
           C 762.03,9.00 762.03,55.00 762.03,55.00
             762.03,55.00 775.36,55.00 775.36,55.00
             775.36,55.00 775.36,37.48 775.36,37.48
             775.36,37.48 781.56,37.48 781.56,37.48
             781.56,37.48 781.56,55.00 781.56,55.00
             781.56,55.00 794.83,55.00 794.83,55.00
             794.83,55.00 794.83,9.00 794.83,9.00
             794.83,9.00 781.56,9.00 781.56,9.00
             781.56,9.00 781.56,26.00 781.56,26.00
             781.56,26.00 775.36,26.00 775.36,26.00
             775.36,26.00 775.36,9.00 775.36,9.00
             775.36,9.00 762.03,9.00 762.03,9.00 Z
           M 798.55,9.00
           C 798.55,9.00 798.55,20.36 798.55,20.36
             798.55,20.36 807.23,20.36 807.23,20.36
             807.23,20.36 807.23,55.00 807.23,55.00
             807.23,55.00 820.56,55.00 820.56,55.00
             820.56,55.00 820.56,20.36 820.56,20.36
             820.56,20.36 829.23,20.36 829.23,20.36
             829.23,20.36 829.23,9.00 829.23,9.00
             829.23,9.00 798.55,9.00 798.55,9.00 Z
           M 833.03,9.00
           C 833.03,9.00 833.03,55.00 833.03,55.00
             833.03,55.00 859.75,55.00 859.75,55.00
             859.75,55.00 859.75,44.03 859.75,44.03
             859.75,44.03 846.36,44.03 846.36,44.03
             846.36,44.03 846.36,37.00 846.36,37.00
             846.36,37.00 857.64,37.00 857.64,37.00
             857.64,37.00 857.64,26.97 857.64,26.97
             857.64,26.97 846.36,26.97 846.36,26.97
             846.36,26.97 846.36,19.98 846.36,19.98
             846.36,19.98 859.12,19.98 859.12,19.98
             859.12,19.98 859.12,9.00 859.12,9.00
             859.12,9.00 833.03,9.00 833.03,9.00 Z
           M 885.30,9.00
           C 885.30,9.00 885.30,31.03 885.30,31.03
             885.30,31.03 884.94,31.03 884.94,31.03
             884.94,31.03 877.73,9.00 877.73,9.00
             877.73,9.00 865.03,9.00 865.03,9.00
             865.03,9.00 865.03,55.00 865.03,55.00
             865.03,55.00 877.42,55.00 877.42,55.00
             877.42,55.00 877.42,32.92 877.42,32.92
             877.42,32.92 877.80,32.92 877.80,32.92
             877.80,32.92 884.88,55.00 884.88,55.00
             884.88,55.00 897.70,55.00 897.70,55.00
             897.70,55.00 897.70,9.00 897.70,9.00
             897.70,9.00 885.30,9.00 885.30,9.00 Z
           M 8.80,71.00
           C 8.80,71.00 8.80,91.88 8.80,91.88
             8.80,99.11 12.44,103.00 19.30,103.00
             26.14,103.00 29.78,98.95 29.78,91.88
             29.78,91.88 29.78,71.00 29.78,71.00
             29.78,71.00 21.09,71.00 21.09,71.00
             21.09,71.00 21.09,93.02 21.09,93.02
             21.09,94.83 20.41,95.59 19.30,95.59
             18.19,95.59 17.48,94.83 17.48,93.02
             17.48,93.02 17.48,71.00 17.48,71.00
             17.48,71.00 8.80,71.00 8.80,71.00 Z
           M 14.41,59.00
           C 12.00,59.00 10.27,60.81 10.27,63.27
             10.27,65.69 11.95,67.53 14.41,67.53
             16.92,67.53 18.64,65.69 18.64,63.27
             18.64,60.81 16.92,59.00 14.41,59.00 Z
           M 24.12,59.00
           C 21.72,59.00 19.98,60.81 19.98,63.27
             19.98,65.69 21.67,67.53 24.12,67.53
             26.62,67.53 28.36,65.69 28.36,63.27
             28.36,60.81 26.62,59.00 24.12,59.00 Z
           M 33.75,71.00
           C 33.75,71.00 33.75,102.00 33.75,102.00
             33.75,102.00 40.56,102.00 40.56,102.00
             40.56,102.00 40.56,99.27 40.56,99.27
             41.70,102.05 43.39,103.00 45.69,103.00
             50.16,103.00 52.58,99.34 52.58,93.22
             52.58,93.22 52.58,89.00 52.58,89.00
             52.58,82.72 49.88,80.00 45.69,80.00
             44.09,80.00 42.66,80.78 41.70,82.22
             41.70,82.22 41.70,71.00 41.70,71.00
             41.70,71.00 33.75,71.00 33.75,71.00 Z
           M 41.55,89.14
           C 41.55,87.81 42.12,86.86 43.14,86.86
             44.17,86.86 44.75,87.72 44.75,89.14
             44.75,89.14 44.75,93.08 44.75,93.08
             44.75,94.64 44.12,95.58 43.14,95.58
             42.16,95.58 41.55,94.69 41.55,93.23
             41.55,93.23 41.55,89.14 41.55,89.14 Z
           M 73.62,93.06
           C 73.62,93.06 73.62,90.16 73.62,90.16
             73.62,84.19 70.92,80.00 64.66,80.00
             58.80,80.00 55.34,83.94 55.34,90.69
             55.34,90.69 55.34,91.67 55.34,91.67
             55.34,99.23 58.25,103.00 64.56,103.00
             69.66,103.00 73.06,100.34 73.62,95.50
             73.62,95.50 66.09,95.50 66.09,95.50
             66.05,96.17 65.47,96.94 64.53,96.94
             63.67,96.94 63.09,96.23 63.09,94.47
             63.09,94.47 63.09,93.06 63.09,93.06
             63.09,93.06 73.62,93.06 73.62,93.06 Z
           M 63.09,88.22
           C 63.09,86.92 63.59,86.08 64.53,86.08
             65.52,86.08 65.97,86.92 65.97,88.22
             65.97,88.22 65.97,89.00 65.97,89.00
             65.97,89.00 63.09,89.00 63.09,89.00
             63.09,89.00 63.09,88.22 63.09,88.22 Z
           M 76.75,81.00
           C 76.75,81.00 76.75,102.00 76.75,102.00
             76.75,102.00 84.75,102.00 84.75,102.00
             84.75,102.00 84.75,91.09 84.75,91.09
             84.75,89.12 85.94,87.86 87.78,87.86
             87.78,87.86 89.30,87.86 89.30,87.86
             89.30,87.86 89.30,80.00 89.30,80.00
             89.30,80.00 88.31,80.00 88.31,80.00
             86.14,80.00 84.38,81.44 83.52,84.06
             83.52,84.06 83.52,81.00 83.52,81.00
             83.52,81.00 76.75,81.00 76.75,81.00 Z
           M 108.89,87.41
           C 108.89,87.41 108.89,86.89 108.89,86.89
             108.89,82.75 105.70,80.00 100.25,80.00
             94.70,80.00 91.47,82.59 91.47,87.30
             91.47,91.55 93.84,93.80 100.00,94.00
             101.19,94.06 101.64,94.75 101.64,95.88
             101.64,97.02 101.14,97.64 100.28,97.64
             99.42,97.64 98.89,97.06 98.89,96.00
             98.89,96.00 98.89,96.03 98.89,96.03
             98.89,96.03 91.14,96.03 91.14,96.03
             91.14,96.03 91.14,96.45 91.14,96.45
             91.14,100.39 94.14,103.00 100.20,103.00
             105.94,103.00 109.27,100.50 109.27,96.03
             109.27,90.89 106.89,88.88 100.45,88.56
             99.47,88.50 98.89,88.03 98.89,86.94
             98.89,86.00 99.38,85.42 100.08,85.42
             100.89,85.42 101.34,86.00 101.34,86.89
             101.34,86.89 101.34,86.98 101.34,86.98
             101.34,86.98 108.89,87.41 108.89,87.41 Z
           M 111.75,81.00
           C 111.75,81.00 111.75,102.00 111.75,102.00
             111.75,102.00 119.55,102.00 119.55,102.00
             119.55,102.00 119.55,81.00 119.55,81.00
             119.55,81.00 111.75,81.00 111.75,81.00 Z
           M 115.66,69.64
           C 113.03,69.64 111.27,71.28 111.27,73.83
             111.27,76.38 113.03,78.00 115.66,78.00
             118.31,78.00 120.03,76.38 120.03,73.83
             120.03,71.28 118.31,69.64 115.66,69.64 Z
           M 140.39,90.36
           C 140.39,90.36 140.39,89.20 140.39,89.20
             140.39,83.78 137.56,80.00 131.61,80.00
             125.58,80.00 122.34,84.31 122.34,91.30
             122.34,91.30 122.34,92.61 122.34,92.61
             122.34,99.28 125.55,103.00 131.33,103.00
             137.52,103.00 140.39,99.03 140.39,94.39
             140.39,94.39 140.39,93.53 140.39,93.53
             140.39,93.53 132.84,93.53 132.84,93.53
             132.84,93.53 132.84,94.39 132.84,94.39
             132.84,95.41 132.39,96.16 131.48,96.16
             130.55,96.16 130.14,95.45 130.14,93.52
             130.14,93.52 130.14,89.50 130.14,89.50
             130.14,87.61 130.59,86.86 131.48,86.86
             132.39,86.86 132.84,87.61 132.84,89.00
             132.84,89.00 132.84,89.48 132.84,89.48
             132.84,89.48 140.39,90.36 140.39,90.36 Z
           M 143.75,71.00
           C 143.75,71.00 143.75,102.00 143.75,102.00
             143.75,102.00 151.70,102.00 151.70,102.00
             151.70,102.00 151.70,89.05 151.70,89.05
             151.70,87.94 152.33,87.19 153.34,87.19
             154.50,87.19 154.98,87.94 154.98,89.05
             154.98,89.05 154.98,102.00 154.98,102.00
             154.98,102.00 162.94,102.00 162.94,102.00
             162.94,102.00 162.94,88.25 162.94,88.25
             162.94,82.88 160.89,80.00 156.50,80.00
             154.45,80.00 152.86,80.95 151.70,82.59
             151.70,82.59 151.70,71.00 151.70,71.00
             151.70,71.00 143.75,71.00 143.75,71.00 Z
           M 164.73,81.00
           C 164.73,81.00 164.73,87.33 164.73,87.33
             164.73,87.33 167.16,87.33 167.16,87.33
             167.16,87.33 167.16,94.72 167.16,94.72
             167.16,100.02 169.33,103.00 174.94,103.00
             176.12,103.00 177.31,102.84 178.27,102.59
             178.27,102.59 178.27,96.03 178.27,96.03
             177.89,96.08 177.52,96.12 177.11,96.12
             175.77,96.12 175.11,95.42 175.11,93.64
             175.11,93.64 175.11,87.33 175.11,87.33
             175.11,87.33 177.97,87.33 177.97,87.33
             177.97,87.33 177.97,81.00 177.97,81.00
             177.97,81.00 175.11,81.00 175.11,81.00
             175.11,81.00 175.11,76.00 175.11,76.00
             175.11,76.00 167.84,76.00 167.84,76.00
             167.84,76.00 167.84,78.28 167.84,78.28
             167.84,80.14 166.94,81.00 165.30,81.00
             165.30,81.00 164.73,81.00 164.73,81.00 Z
           M 208.17,102.00
           C 208.17,102.00 208.17,71.00 208.17,71.00
             208.17,71.00 200.20,71.00 200.20,71.00
             200.20,71.00 200.20,82.27 200.20,82.27
             199.64,80.88 198.28,80.00 196.48,80.00
             192.25,80.00 189.34,83.05 189.34,89.28
             189.34,89.28 189.34,93.22 189.34,93.22
             189.34,100.02 191.56,103.00 196.16,103.00
             198.53,103.00 200.45,101.86 201.36,99.44
             201.36,99.44 201.36,102.00 201.36,102.00
             201.36,102.00 208.17,102.00 208.17,102.00 Z
           M 200.38,92.86
           C 200.38,95.16 199.77,96.16 198.78,96.16
             197.80,96.16 197.17,95.20 197.17,93.66
             197.17,93.66 197.17,89.36 197.17,89.36
             197.17,87.91 197.75,86.86 198.78,86.86
             199.80,86.86 200.38,87.81 200.38,89.36
             200.38,89.36 200.38,92.86 200.38,92.86 Z
           M 229.62,93.06
           C 229.62,93.06 229.62,90.16 229.62,90.16
             229.62,84.19 226.92,80.00 220.66,80.00
             214.80,80.00 211.34,83.94 211.34,90.69
             211.34,90.69 211.34,91.67 211.34,91.67
             211.34,99.23 214.25,103.00 220.56,103.00
             225.66,103.00 229.06,100.34 229.62,95.50
             229.62,95.50 222.09,95.50 222.09,95.50
             222.05,96.17 221.47,96.94 220.53,96.94
             219.67,96.94 219.09,96.23 219.09,94.47
             219.09,94.47 219.09,93.06 219.09,93.06
             219.09,93.06 229.62,93.06 229.62,93.06 Z
           M 219.09,88.22
           C 219.09,86.92 219.59,86.08 220.53,86.08
             221.52,86.08 221.97,86.92 221.97,88.22
             221.97,88.22 221.97,89.00 221.97,89.00
             221.97,89.00 219.09,89.00 219.09,89.00
             219.09,89.00 219.09,88.22 219.09,88.22 Z
           M 232.75,81.00
           C 232.75,81.00 232.75,102.00 232.75,102.00
             232.75,102.00 240.75,102.00 240.75,102.00
             240.75,102.00 240.75,91.09 240.75,91.09
             240.75,89.12 241.94,87.86 243.78,87.86
             243.78,87.86 245.30,87.86 245.30,87.86
             245.30,87.86 245.30,80.00 245.30,80.00
             245.30,80.00 244.31,80.00 244.31,80.00
             242.14,80.00 240.38,81.44 239.52,84.06
             239.52,84.06 239.52,81.00 239.52,81.00
             239.52,81.00 232.75,81.00 232.75,81.00 Z
           M 276.52,80.30
           C 276.52,80.30 276.52,78.84 276.52,78.84
             276.52,73.20 273.20,70.00 266.72,70.00
             260.44,70.00 256.88,73.86 256.88,79.55
             256.88,79.55 256.88,80.66 256.88,80.66
             256.88,85.83 259.95,89.52 266.55,90.00
             268.16,90.16 268.89,91.14 268.89,92.73
             268.89,92.73 268.89,93.97 268.89,93.97
             268.89,95.23 268.28,96.08 267.09,96.08
             265.98,96.08 265.33,95.23 265.33,93.48
             265.33,93.48 265.33,91.89 265.33,91.89
             265.33,91.89 256.59,91.89 256.59,91.89
             256.59,91.89 256.59,93.44 256.59,93.44
             256.59,99.36 260.03,103.00 267.09,103.00
             274.06,103.00 277.25,98.75 277.25,93.48
             277.25,93.48 277.25,92.31 277.25,92.31
             277.25,86.44 274.22,82.92 267.42,82.38
             265.86,82.25 265.16,81.50 265.16,79.91
             265.16,79.91 265.16,78.75 265.16,78.75
             265.16,77.59 265.69,76.94 266.72,76.94
             267.83,76.94 268.31,77.59 268.31,78.66
             268.31,78.66 268.31,80.05 268.31,80.05
             268.31,80.05 276.52,80.30 276.52,80.30 Z
           M 278.73,81.00
           C 278.73,81.00 278.73,87.33 278.73,87.33
             278.73,87.33 281.16,87.33 281.16,87.33
             281.16,87.33 281.16,94.72 281.16,94.72
             281.16,100.02 283.33,103.00 288.94,103.00
             290.12,103.00 291.31,102.84 292.27,102.59
             292.27,102.59 292.27,96.03 292.27,96.03
             291.89,96.08 291.52,96.12 291.11,96.12
             289.77,96.12 289.11,95.42 289.11,93.64
             289.11,93.64 289.11,87.33 289.11,87.33
             289.11,87.33 291.97,87.33 291.97,87.33
             291.97,87.33 291.97,81.00 291.97,81.00
             291.97,81.00 289.11,81.00 289.11,81.00
             289.11,81.00 289.11,76.00 289.11,76.00
             289.11,76.00 281.84,76.00 281.84,76.00
             281.84,76.00 281.84,78.28 281.84,78.28
             281.84,80.14 280.94,81.00 279.30,81.00
             279.30,81.00 278.73,81.00 278.73,81.00 Z
           M 301.81,88.00
           C 301.81,88.00 301.81,87.52 301.81,87.52
             301.81,86.75 302.34,86.08 303.16,86.08
             304.06,86.08 304.47,86.52 304.47,87.33
             304.47,88.39 303.78,88.92 302.02,89.16
             297.22,89.84 294.14,92.44 294.14,97.31
             294.14,100.80 296.44,103.00 300.17,103.00
             303.12,103.00 305.17,101.91 306.23,99.41
             306.73,101.75 308.05,103.00 310.45,103.00
             311.48,103.00 312.67,102.83 313.53,102.59
             313.53,102.59 313.53,95.88 313.53,95.88
             313.53,95.88 312.84,95.88 312.84,95.88
             312.14,96.52 311.81,96.02 311.81,95.06
             311.81,95.06 311.81,88.00 311.81,88.00
             311.81,82.88 309.11,80.00 303.48,80.00
             298.36,80.00 294.84,83.00 294.84,87.52
             294.84,87.52 294.84,88.00 294.84,88.00
             294.84,88.00 301.81,88.00 301.81,88.00 Z
           M 304.39,95.66
           C 304.39,96.66 303.81,97.31 303.03,97.31
             302.17,97.31 301.64,96.77 301.64,95.70
             301.64,94.75 302.17,94.11 303.03,93.95
             303.56,93.86 304.06,93.66 304.39,93.45
             304.39,93.45 304.39,95.66 304.39,95.66 Z
           M 334.17,102.00
           C 334.17,102.00 334.17,71.00 334.17,71.00
             334.17,71.00 326.20,71.00 326.20,71.00
             326.20,71.00 326.20,82.27 326.20,82.27
             325.64,80.88 324.28,80.00 322.48,80.00
             318.25,80.00 315.34,83.05 315.34,89.28
             315.34,89.28 315.34,93.22 315.34,93.22
             315.34,100.02 317.56,103.00 322.16,103.00
             324.53,103.00 326.45,101.86 327.36,99.44
             327.36,99.44 327.36,102.00 327.36,102.00
             327.36,102.00 334.17,102.00 334.17,102.00 Z
           M 326.38,92.86
           C 326.38,95.16 325.77,96.16 324.78,96.16
             323.80,96.16 323.17,95.20 323.17,93.66
             323.17,93.66 323.17,89.36 323.17,89.36
             323.17,87.91 323.75,86.86 324.78,86.86
             325.80,86.86 326.38,87.81 326.38,89.36
             326.38,89.36 326.38,92.86 326.38,92.86 Z
           M 336.73,81.00
           C 336.73,81.00 336.73,87.33 336.73,87.33
             336.73,87.33 339.16,87.33 339.16,87.33
             339.16,87.33 339.16,94.72 339.16,94.72
             339.16,100.02 341.33,103.00 346.94,103.00
             348.12,103.00 349.31,102.84 350.27,102.59
             350.27,102.59 350.27,96.03 350.27,96.03
             349.89,96.08 349.52,96.12 349.11,96.12
             347.77,96.12 347.11,95.42 347.11,93.64
             347.11,93.64 347.11,87.33 347.11,87.33
             347.11,87.33 349.97,87.33 349.97,87.33
             349.97,87.33 349.97,81.00 349.97,81.00
             349.97,81.00 347.11,81.00 347.11,81.00
             347.11,81.00 347.11,76.00 347.11,76.00
             347.11,76.00 339.84,76.00 339.84,76.00
             339.84,76.00 339.84,78.28 339.84,78.28
             339.84,80.14 338.94,81.00 337.30,81.00
             337.30,81.00 336.73,81.00 336.73,81.00 Z
           M 371.17,80.00
           C 371.17,80.00 361.00,80.00 361.00,80.00
             355.25,80.00 352.30,83.33 352.30,87.69
             352.30,87.69 352.30,88.31 352.30,88.31
             352.30,90.77 353.12,92.81 354.84,94.16
             354.03,94.94 353.53,96.06 353.53,97.73
             353.53,98.97 353.91,99.95 354.59,100.61
             352.47,101.72 351.11,103.84 351.11,106.70
             351.11,111.17 354.19,114.00 360.22,114.00
             367.06,114.00 370.84,110.41 370.84,105.47
             370.84,101.09 368.38,98.52 363.75,98.52
             363.75,98.52 361.45,98.52 361.45,98.52
             360.59,98.52 360.17,97.98 360.17,97.05
             360.17,96.69 360.22,96.33 360.34,96.00
             360.34,96.00 361.00,96.00 361.00,96.00
             366.33,96.00 369.08,92.89 369.08,88.58
             369.08,88.58 369.08,87.95 369.08,87.95
             369.08,87.28 368.95,86.56 368.70,86.08
             368.70,86.08 371.17,86.08 371.17,86.08
             371.17,86.08 371.17,80.00 371.17,80.00 Z
           M 362.06,104.00
           C 363.00,104.00 363.50,104.61 363.50,105.66
             363.50,107.03 362.67,107.91 360.62,107.91
             358.98,107.91 358.25,107.12 358.25,105.84
             358.25,104.69 358.86,104.00 359.97,104.00
             359.97,104.00 362.06,104.00 362.06,104.00 Z
           M 361.00,85.83
           C 361.86,85.83 362.39,86.56 362.39,87.69
             362.39,87.69 362.39,88.39 362.39,88.39
             362.39,89.55 361.81,90.27 361.00,90.27
             360.14,90.27 359.61,89.59 359.61,88.39
             359.61,88.39 359.61,87.69 359.61,87.69
             359.61,86.56 360.22,85.83 361.00,85.83 Z
           M 390.62,93.06
           C 390.62,93.06 390.62,90.16 390.62,90.16
             390.62,84.19 387.92,80.00 381.66,80.00
             375.80,80.00 372.34,83.94 372.34,90.69
             372.34,90.69 372.34,91.67 372.34,91.67
             372.34,99.23 375.25,103.00 381.56,103.00
             386.66,103.00 390.06,100.34 390.62,95.50
             390.62,95.50 383.09,95.50 383.09,95.50
             383.05,96.17 382.47,96.94 381.53,96.94
             380.67,96.94 380.09,96.23 380.09,94.47
             380.09,94.47 380.09,93.06 380.09,93.06
             380.09,93.06 390.62,93.06 390.62,93.06 Z
           M 380.09,88.22
           C 380.09,86.92 380.59,86.08 381.53,86.08
             382.52,86.08 382.97,86.92 382.97,88.22
             382.97,88.22 382.97,89.00 382.97,89.00
             382.97,89.00 380.09,89.00 380.09,89.00
             380.09,89.00 380.09,88.22 380.09,88.22 Z
           M 410.89,87.41
           C 410.89,87.41 410.89,86.89 410.89,86.89
             410.89,82.75 407.70,80.00 402.25,80.00
             396.70,80.00 393.47,82.59 393.47,87.30
             393.47,91.55 395.84,93.80 402.00,94.00
             403.19,94.06 403.64,94.75 403.64,95.88
             403.64,97.02 403.14,97.64 402.28,97.64
             401.42,97.64 400.89,97.06 400.89,96.00
             400.89,96.00 400.89,96.03 400.89,96.03
             400.89,96.03 393.14,96.03 393.14,96.03
             393.14,96.03 393.14,96.45 393.14,96.45
             393.14,100.39 396.14,103.00 402.20,103.00
             407.94,103.00 411.27,100.50 411.27,96.03
             411.27,90.89 408.89,88.88 402.45,88.56
             401.47,88.50 400.89,88.03 400.89,86.94
             400.89,86.00 401.38,85.42 402.08,85.42
             402.89,85.42 403.34,86.00 403.34,86.89
             403.34,86.89 403.34,86.98 403.34,86.98
             403.34,86.98 410.89,87.41 410.89,87.41 Z
           M 431.39,90.36
           C 431.39,90.36 431.39,89.20 431.39,89.20
             431.39,83.78 428.56,80.00 422.61,80.00
             416.58,80.00 413.34,84.31 413.34,91.30
             413.34,91.30 413.34,92.61 413.34,92.61
             413.34,99.28 416.55,103.00 422.33,103.00
             428.52,103.00 431.39,99.03 431.39,94.39
             431.39,94.39 431.39,93.53 431.39,93.53
             431.39,93.53 423.84,93.53 423.84,93.53
             423.84,93.53 423.84,94.39 423.84,94.39
             423.84,95.41 423.39,96.16 422.48,96.16
             421.55,96.16 421.14,95.45 421.14,93.52
             421.14,93.52 421.14,89.50 421.14,89.50
             421.14,87.61 421.59,86.86 422.48,86.86
             423.39,86.86 423.84,87.61 423.84,89.00
             423.84,89.00 423.84,89.48 423.84,89.48
             423.84,89.48 431.39,90.36 431.39,90.36 Z
           M 434.75,71.00
           C 434.75,71.00 434.75,102.00 434.75,102.00
             434.75,102.00 442.70,102.00 442.70,102.00
             442.70,102.00 442.70,89.05 442.70,89.05
             442.70,87.94 443.33,87.19 444.34,87.19
             445.50,87.19 445.98,87.94 445.98,89.05
             445.98,89.05 445.98,102.00 445.98,102.00
             445.98,102.00 453.94,102.00 453.94,102.00
             453.94,102.00 453.94,88.25 453.94,88.25
             453.94,82.88 451.89,80.00 447.50,80.00
             445.45,80.00 443.86,80.95 442.70,82.59
             442.70,82.59 442.70,71.00 442.70,71.00
             442.70,71.00 434.75,71.00 434.75,71.00 Z
           M 457.75,81.00
           C 457.75,81.00 457.75,102.00 457.75,102.00
             457.75,102.00 465.55,102.00 465.55,102.00
             465.55,102.00 465.55,81.00 465.55,81.00
             465.55,81.00 457.75,81.00 457.75,81.00 Z
           M 461.66,69.64
           C 459.03,69.64 457.27,71.28 457.27,73.83
             457.27,76.38 459.03,78.00 461.66,78.00
             464.31,78.00 466.03,76.38 466.03,73.83
             466.03,71.28 464.31,69.64 461.66,69.64 Z
           M 486.39,90.36
           C 486.39,90.36 486.39,89.20 486.39,89.20
             486.39,83.78 483.56,80.00 477.61,80.00
             471.58,80.00 468.34,84.31 468.34,91.30
             468.34,91.30 468.34,92.61 468.34,92.61
             468.34,99.28 471.55,103.00 477.33,103.00
             483.52,103.00 486.39,99.03 486.39,94.39
             486.39,94.39 486.39,93.53 486.39,93.53
             486.39,93.53 478.84,93.53 478.84,93.53
             478.84,93.53 478.84,94.39 478.84,94.39
             478.84,95.41 478.39,96.16 477.48,96.16
             476.55,96.16 476.14,95.45 476.14,93.52
             476.14,93.52 476.14,89.50 476.14,89.50
             476.14,87.61 476.59,86.86 477.48,86.86
             478.39,86.86 478.84,87.61 478.84,89.00
             478.84,89.00 478.84,89.48 478.84,89.48
             478.84,89.48 486.39,90.36 486.39,90.36 Z
           M 489.75,71.00
           C 489.75,71.00 489.75,102.00 489.75,102.00
             489.75,102.00 497.70,102.00 497.70,102.00
             497.70,102.00 497.70,89.05 497.70,89.05
             497.70,87.94 498.33,87.19 499.34,87.19
             500.50,87.19 500.98,87.94 500.98,89.05
             500.98,89.05 500.98,102.00 500.98,102.00
             500.98,102.00 508.94,102.00 508.94,102.00
             508.94,102.00 508.94,88.25 508.94,88.25
             508.94,82.88 506.89,80.00 502.50,80.00
             500.45,80.00 498.86,80.95 497.70,82.59
             497.70,82.59 497.70,71.00 497.70,71.00
             497.70,71.00 489.75,71.00 489.75,71.00 Z
           M 510.73,81.00
           C 510.73,81.00 510.73,87.33 510.73,87.33
             510.73,87.33 513.16,87.33 513.16,87.33
             513.16,87.33 513.16,94.72 513.16,94.72
             513.16,100.02 515.33,103.00 520.94,103.00
             522.12,103.00 523.31,102.84 524.27,102.59
             524.27,102.59 524.27,96.03 524.27,96.03
             523.89,96.08 523.52,96.12 523.11,96.12
             521.77,96.12 521.11,95.42 521.11,93.64
             521.11,93.64 521.11,87.33 521.11,87.33
             521.11,87.33 523.97,87.33 523.97,87.33
             523.97,87.33 523.97,81.00 523.97,81.00
             523.97,81.00 521.11,81.00 521.11,81.00
             521.11,81.00 521.11,76.00 521.11,76.00
             521.11,76.00 513.84,76.00 513.84,76.00
             513.84,76.00 513.84,78.28 513.84,78.28
             513.84,80.14 512.94,81.00 511.30,81.00
             511.30,81.00 510.73,81.00 510.73,81.00 Z
           M 544.62,93.06
           C 544.62,93.06 544.62,90.16 544.62,90.16
             544.62,84.19 541.92,80.00 535.66,80.00
             529.80,80.00 526.34,83.94 526.34,90.69
             526.34,90.69 526.34,91.67 526.34,91.67
             526.34,99.23 529.25,103.00 535.56,103.00
             540.66,103.00 544.06,100.34 544.62,95.50
             544.62,95.50 537.09,95.50 537.09,95.50
             537.05,96.17 536.47,96.94 535.53,96.94
             534.67,96.94 534.09,96.23 534.09,94.47
             534.09,94.47 534.09,93.06 534.09,93.06
             534.09,93.06 544.62,93.06 544.62,93.06 Z
           M 534.09,88.22
           C 534.09,86.92 534.59,86.08 535.53,86.08
             536.52,86.08 536.97,86.92 536.97,88.22
             536.97,88.22 536.97,89.00 536.97,89.00
             536.97,89.00 534.09,89.00 534.09,89.00
             534.09,89.00 534.09,88.22 534.09,88.22 Z
           M 547.75,81.00
           C 547.75,81.00 547.75,102.00 547.75,102.00
             547.75,102.00 555.70,102.00 555.70,102.00
             555.70,102.00 555.70,89.70 555.70,89.70
             555.70,87.89 556.25,87.19 557.34,87.19
             558.50,87.19 558.98,87.94 558.98,89.05
             558.98,89.05 558.98,102.00 558.98,102.00
             558.98,102.00 566.94,102.00 566.94,102.00
             566.94,102.00 566.94,88.25 566.94,88.25
             566.94,82.88 564.89,80.00 560.50,80.00
             557.80,80.00 555.95,81.36 555.05,84.19
             555.05,84.19 555.05,81.00 555.05,81.00
             555.05,81.00 547.75,81.00 547.75,81.00 Z
           M 578.73,81.00
           C 578.73,81.00 578.73,87.33 578.73,87.33
             578.73,87.33 581.06,87.33 581.06,87.33
             581.06,87.33 581.06,102.00 581.06,102.00
             581.06,102.00 589.02,102.00 589.02,102.00
             589.02,102.00 589.02,87.33 589.02,87.33
             589.02,87.33 591.77,87.33 591.77,87.33
             591.77,87.33 591.77,81.00 591.77,81.00
             591.77,81.00 589.02,81.00 589.02,81.00
             589.02,81.00 589.02,79.70 589.02,79.70
             589.02,78.12 589.77,77.23 591.11,77.23
             591.11,77.23 591.77,77.23 591.77,77.23
             591.77,77.23 591.77,70.00 591.77,70.00
             591.77,70.00 589.97,70.00 589.97,70.00
             584.42,70.00 581.06,73.39 581.06,79.14
             581.06,79.14 581.06,81.00 581.06,81.00
             581.06,81.00 578.73,81.00 578.73,81.00 Z
           M 599.64,70.00
           C 597.25,70.00 595.83,71.61 595.83,73.83
             595.83,76.03 597.25,77.64 599.64,77.64
             602.02,77.64 603.45,76.03 603.45,73.83
             603.45,71.61 602.02,70.00 599.64,70.00 Z
           M 608.91,70.00
           C 606.52,70.00 605.09,71.61 605.09,73.83
             605.09,76.03 606.52,77.64 608.91,77.64
             611.28,77.64 612.72,76.03 612.72,73.83
             612.72,71.61 611.28,70.00 608.91,70.00 Z
           M 594.62,81.00
           C 594.62,81.00 594.62,94.33 594.62,94.33
             594.62,100.14 596.77,103.00 601.06,103.00
             603.73,103.00 605.66,101.70 606.52,99.23
             606.52,99.23 606.52,102.00 606.52,102.00
             606.52,102.00 613.83,102.00 613.83,102.00
             613.83,102.00 613.83,81.00 613.83,81.00
             613.83,81.00 605.86,81.00 605.86,81.00
             605.86,81.00 605.86,93.97 605.86,93.97
             605.86,95.12 605.33,95.83 604.22,95.83
             603.08,95.83 602.59,95.08 602.59,93.97
             602.59,93.97 602.59,81.00 602.59,81.00
             602.59,81.00 594.62,81.00 594.62,81.00 Z
           M 617.75,81.00
           C 617.75,81.00 617.75,102.00 617.75,102.00
             617.75,102.00 625.75,102.00 625.75,102.00
             625.75,102.00 625.75,91.09 625.75,91.09
             625.75,89.12 626.94,87.86 628.78,87.86
             628.78,87.86 630.30,87.86 630.30,87.86
             630.30,87.86 630.30,80.00 630.30,80.00
             630.30,80.00 629.31,80.00 629.31,80.00
             627.14,80.00 625.38,81.44 624.52,84.06
             624.52,84.06 624.52,81.00 624.52,81.00
             624.52,81.00 617.75,81.00 617.75,81.00 Z
           M 660.17,102.00
           C 660.17,102.00 660.17,71.00 660.17,71.00
             660.17,71.00 652.20,71.00 652.20,71.00
             652.20,71.00 652.20,82.27 652.20,82.27
             651.64,80.88 650.28,80.00 648.48,80.00
             644.25,80.00 641.34,83.05 641.34,89.28
             641.34,89.28 641.34,93.22 641.34,93.22
             641.34,100.02 643.56,103.00 648.16,103.00
             650.53,103.00 652.45,101.86 653.36,99.44
             653.36,99.44 653.36,102.00 653.36,102.00
             653.36,102.00 660.17,102.00 660.17,102.00 Z
           M 652.38,92.86
           C 652.38,95.16 651.77,96.16 650.78,96.16
             649.80,96.16 649.17,95.20 649.17,93.66
             649.17,93.66 649.17,89.36 649.17,89.36
             649.17,87.91 649.75,86.86 650.78,86.86
             651.80,86.86 652.38,87.81 652.38,89.36
             652.38,89.36 652.38,92.86 652.38,92.86 Z
           M 681.62,93.06
           C 681.62,93.06 681.62,90.16 681.62,90.16
             681.62,84.19 678.92,80.00 672.66,80.00
             666.80,80.00 663.34,83.94 663.34,90.69
             663.34,90.69 663.34,91.67 663.34,91.67
             663.34,99.23 666.25,103.00 672.56,103.00
             677.66,103.00 681.06,100.34 681.62,95.50
             681.62,95.50 674.09,95.50 674.09,95.50
             674.05,96.17 673.47,96.94 672.53,96.94
             671.67,96.94 671.09,96.23 671.09,94.47
             671.09,94.47 671.09,93.06 671.09,93.06
             671.09,93.06 681.62,93.06 681.62,93.06 Z
           M 671.09,88.22
           C 671.09,86.92 671.59,86.08 672.53,86.08
             673.52,86.08 673.97,86.92 673.97,88.22
             673.97,88.22 673.97,89.00 673.97,89.00
             673.97,89.00 671.09,89.00 671.09,89.00
             671.09,89.00 671.09,88.22 671.09,88.22 Z
           M 684.75,81.00
           C 684.75,81.00 684.75,102.00 684.75,102.00
             684.75,102.00 692.70,102.00 692.70,102.00
             692.70,102.00 692.70,89.70 692.70,89.70
             692.70,87.89 693.25,87.19 694.34,87.19
             695.50,87.19 695.98,87.94 695.98,89.05
             695.98,89.05 695.98,102.00 695.98,102.00
             695.98,102.00 703.94,102.00 703.94,102.00
             703.94,102.00 703.94,88.25 703.94,88.25
             703.94,82.88 701.89,80.00 697.50,80.00
             694.80,80.00 692.95,81.36 692.05,84.19
             692.05,84.19 692.05,81.00 692.05,81.00
             692.05,81.00 684.75,81.00 684.75,81.00 Z
           M 717.00,71.00
           C 717.00,71.00 717.00,102.00 717.00,102.00
             717.00,102.00 725.81,102.00 725.81,102.00
             725.81,102.00 725.81,94.00 725.81,94.00
             725.81,94.00 727.25,94.00 727.25,94.00
             734.30,94.00 737.83,89.83 737.83,83.41
             737.83,83.41 737.83,81.61 737.83,81.61
             737.83,75.16 734.30,71.00 727.25,71.00
             727.25,71.00 717.00,71.00 717.00,71.00 Z
           M 725.81,78.47
           C 725.81,78.47 727.00,78.47 727.00,78.47
             728.41,78.47 729.22,79.31 729.22,81.19
             729.22,81.19 729.22,83.86 729.22,83.86
             729.22,85.73 728.31,86.59 727.00,86.59
             727.00,86.59 725.81,86.59 725.81,86.59
             725.81,86.59 725.81,78.47 725.81,78.47 Z
           M 749.66,80.00
           C 743.83,80.00 740.34,84.11 740.34,90.75
             740.34,90.75 740.34,92.27 740.34,92.27
             740.34,99.03 743.42,103.00 749.66,103.00
             755.47,103.00 758.95,98.95 758.95,92.27
             758.95,92.27 758.95,90.75 758.95,90.75
             758.95,83.98 755.92,80.00 749.66,80.00 Z
           M 749.66,86.86
           C 750.59,86.86 751.12,87.70 751.12,89.50
             751.12,89.50 751.12,93.52 751.12,93.52
             751.12,95.27 750.59,96.16 749.66,96.16
             748.70,96.16 748.17,95.31 748.17,93.52
             748.17,93.52 748.17,89.50 748.17,89.50
             748.17,87.75 748.70,86.86 749.66,86.86 Z
           M 780.17,102.00
           C 780.17,102.00 780.17,71.00 780.17,71.00
             780.17,71.00 772.20,71.00 772.20,71.00
             772.20,71.00 772.20,82.27 772.20,82.27
             771.64,80.88 770.28,80.00 768.48,80.00
             764.25,80.00 761.34,83.05 761.34,89.28
             761.34,89.28 761.34,93.22 761.34,93.22
             761.34,100.02 763.56,103.00 768.16,103.00
             770.53,103.00 772.45,101.86 773.36,99.44
             773.36,99.44 773.36,102.00 773.36,102.00
             773.36,102.00 780.17,102.00 780.17,102.00 Z
           M 772.38,92.86
           C 772.38,95.16 771.77,96.16 770.78,96.16
             769.80,96.16 769.17,95.20 769.17,93.66
             769.17,93.66 769.17,89.36 769.17,89.36
             769.17,87.91 769.75,86.86 770.78,86.86
             771.80,86.86 772.38,87.81 772.38,89.36
             772.38,89.36 772.38,92.86 772.38,92.86 Z
           M 801.39,90.36
           C 801.39,90.36 801.39,89.20 801.39,89.20
             801.39,83.78 798.56,80.00 792.61,80.00
             786.58,80.00 783.34,84.31 783.34,91.30
             783.34,91.30 783.34,92.61 783.34,92.61
             783.34,99.28 786.55,103.00 792.33,103.00
             798.52,103.00 801.39,99.03 801.39,94.39
             801.39,94.39 801.39,93.53 801.39,93.53
             801.39,93.53 793.84,93.53 793.84,93.53
             793.84,93.53 793.84,94.39 793.84,94.39
             793.84,95.41 793.39,96.16 792.48,96.16
             791.55,96.16 791.14,95.45 791.14,93.52
             791.14,93.52 791.14,89.50 791.14,89.50
             791.14,87.61 791.59,86.86 792.48,86.86
             793.39,86.86 793.84,87.61 793.84,89.00
             793.84,89.00 793.84,89.48 793.84,89.48
             793.84,89.48 801.39,90.36 801.39,90.36 Z
           M 811.81,88.00
           C 811.81,88.00 811.81,87.52 811.81,87.52
             811.81,86.75 812.34,86.08 813.16,86.08
             814.06,86.08 814.47,86.52 814.47,87.33
             814.47,88.39 813.78,88.92 812.02,89.16
             807.22,89.84 804.14,92.44 804.14,97.31
             804.14,100.80 806.44,103.00 810.17,103.00
             813.12,103.00 815.17,101.91 816.23,99.41
             816.73,101.75 818.05,103.00 820.45,103.00
             821.48,103.00 822.67,102.83 823.53,102.59
             823.53,102.59 823.53,95.88 823.53,95.88
             823.53,95.88 822.84,95.88 822.84,95.88
             822.14,96.52 821.81,96.02 821.81,95.06
             821.81,95.06 821.81,88.00 821.81,88.00
             821.81,82.88 819.11,80.00 813.48,80.00
             808.36,80.00 804.84,83.00 804.84,87.52
             804.84,87.52 804.84,88.00 804.84,88.00
             804.84,88.00 811.81,88.00 811.81,88.00 Z
           M 814.39,95.66
           C 814.39,96.66 813.81,97.31 813.03,97.31
             812.17,97.31 811.64,96.77 811.64,95.70
             811.64,94.75 812.17,94.11 813.03,93.95
             813.56,93.86 814.06,93.66 814.39,93.45
             814.39,93.45 814.39,95.66 814.39,95.66 Z
           M 842.89,87.41
           C 842.89,87.41 842.89,86.89 842.89,86.89
             842.89,82.75 839.70,80.00 834.25,80.00
             828.70,80.00 825.47,82.59 825.47,87.30
             825.47,91.55 827.84,93.80 834.00,94.00
             835.19,94.06 835.64,94.75 835.64,95.88
             835.64,97.02 835.14,97.64 834.28,97.64
             833.42,97.64 832.89,97.06 832.89,96.00
             832.89,96.00 832.89,96.03 832.89,96.03
             832.89,96.03 825.14,96.03 825.14,96.03
             825.14,96.03 825.14,96.45 825.14,96.45
             825.14,100.39 828.14,103.00 834.20,103.00
             839.94,103.00 843.27,100.50 843.27,96.03
             843.27,90.89 840.89,88.88 834.45,88.56
             833.47,88.50 832.89,88.03 832.89,86.94
             832.89,86.00 833.38,85.42 834.08,85.42
             834.89,85.42 835.34,86.00 835.34,86.89
             835.34,86.89 835.34,86.98 835.34,86.98
             835.34,86.98 842.89,87.41 842.89,87.41 Z
           M 844.73,81.00
           C 844.73,81.00 844.73,87.33 844.73,87.33
             844.73,87.33 847.16,87.33 847.16,87.33
             847.16,87.33 847.16,94.72 847.16,94.72
             847.16,100.02 849.33,103.00 854.94,103.00
             856.12,103.00 857.31,102.84 858.27,102.59
             858.27,102.59 858.27,96.03 858.27,96.03
             857.89,96.08 857.52,96.12 857.11,96.12
             855.77,96.12 855.11,95.42 855.11,93.64
             855.11,93.64 855.11,87.33 855.11,87.33
             855.11,87.33 857.97,87.33 857.97,87.33
             857.97,87.33 857.97,81.00 857.97,81.00
             857.97,81.00 855.11,81.00 855.11,81.00
             855.11,81.00 855.11,76.00 855.11,76.00
             855.11,76.00 847.84,76.00 847.84,76.00
             847.84,76.00 847.84,78.28 847.84,78.28
             847.84,80.14 846.94,81.00 845.30,81.00
             845.30,81.00 844.73,81.00 844.73,81.00 Z
           M 883.41,71.00
           C 883.41,71.00 883.41,85.84 883.41,85.84
             883.41,85.84 883.16,85.84 883.16,85.84
             883.16,85.84 878.41,71.00 878.41,71.00
             878.41,71.00 870.00,71.00 870.00,71.00
             870.00,71.00 870.00,102.00 870.00,102.00
             870.00,102.00 878.20,102.00 878.20,102.00
             878.20,102.00 878.20,87.12 878.20,87.12
             878.20,87.12 878.45,87.12 878.45,87.12
             878.45,87.12 883.12,102.00 883.12,102.00
             883.12,102.00 891.61,102.00 891.61,102.00
             891.61,102.00 891.61,71.00 891.61,71.00
             891.61,71.00 883.41,71.00 883.41,71.00 Z
           M 895.75,81.00
           C 895.75,81.00 895.75,102.00 895.75,102.00
             895.75,102.00 903.75,102.00 903.75,102.00
             903.75,102.00 903.75,91.09 903.75,91.09
             903.75,89.12 904.94,87.86 906.78,87.86
             906.78,87.86 908.30,87.86 908.30,87.86
             908.30,87.86 908.30,80.00 908.30,80.00
             908.30,80.00 907.31,80.00 907.31,80.00
             905.14,80.00 903.38,81.44 902.52,84.06
             902.52,84.06 902.52,81.00 902.52,81.00
             902.52,81.00 895.75,81.00 895.75,81.00 Z
           M 912.69,93.66
           C 909.78,93.66 908.02,95.67 908.02,98.33
             908.02,101.00 909.73,103.00 912.69,103.00
             915.61,103.00 917.36,101.00 917.36,98.33
             917.36,95.67 915.56,93.66 912.69,93.66 Z
           M 923.58,71.00
           C 923.58,71.00 923.58,72.23 923.58,72.23
             923.58,76.78 921.66,78.92 917.95,78.92
             917.95,78.92 917.02,78.92 917.02,78.92
             917.02,78.92 917.02,86.00 917.02,86.00
             917.02,86.00 923.17,86.00 923.17,86.00
             923.17,86.00 923.17,102.00 923.17,102.00
             923.17,102.00 931.98,102.00 931.98,102.00
             931.98,102.00 931.98,71.00 931.98,71.00
             931.98,71.00 923.58,71.00 923.58,71.00 Z
           M 935.72,71.00
           C 935.72,71.00 935.72,92.31 935.72,92.31
             935.72,92.31 943.67,92.31 943.67,92.31
             943.67,92.31 943.67,71.00 943.67,71.00
             943.67,71.00 935.72,71.00 935.72,71.00 Z
           M 939.69,94.06
           C 936.91,94.06 935.02,95.88 935.02,98.53
             935.02,101.20 936.86,103.00 939.69,103.00
             942.48,103.00 944.36,101.20 944.36,98.53
             944.36,95.88 942.44,94.06 939.69,94.06 Z"/>
</svg>
